<svg width="128" height="128" xmlns="http://www.w3.org/2000/svg">
 <defs>
  <linearGradient y2="1.23956" y1="-0.10757" x2="0.81721" x1="0.21995" id="a">
   <stop stop-color="#58d09e" offset="0.094"/>
   <stop stop-opacity="0" stop-color="#58d09e" offset="0.988"/>
  </linearGradient>
  <linearGradient y2="0.80483" y1="0.32702" x2="1.15821" x1="-0.0286" id="b">
   <stop stop-color="#58d09e" offset="0.077"/>
   <stop stop-color="#1b1e2e" offset="0.762"/>
  </linearGradient>
 </defs>
 <g>
  <title>Layer 1</title>
  <path id="svg_1" d="m0.917,70.837a25.852,25.852 0 0 1 -0.917,-6.834c0,-10.588 6.65,-20.27 16.543,-24.088l1.302,3.357c-8.521,3.288 -14.243,11.619 -14.243,20.73c0,1.997 0.265,3.977 0.786,5.886l-3.471,0.949z" fill="#69d3a7"/>
  <path id="svg_2" d="m45.664,53.773c-3.85,-7.393 -11.433,-11.987 -19.78,-11.987c-2.957,0 -5.832,0.57 -8.538,1.687l-1.383,-3.325a25.807,25.807 0 0 1 9.92,-1.963c9.698,0 18.501,5.331 22.976,13.923l-3.195,1.665z" fill="url(#a)"/>
  <path id="svg_3" d="m104.318,55.14c-1.914,0 -3.53,0.493 -4.81,1.47c-1.307,0.97 -1.969,2.234 -1.969,3.769c0,2.218 1.404,3.884 3.764,4.453c0.613,0.141 1.259,0.261 1.883,0.375c2.348,0.429 4.566,0.836 4.566,2.414c0,1.22 -1.415,2.067 -3.443,2.067c-2.061,0 -3.2,-0.826 -3.477,-2.524l-0.033,-0.19l-3.785,0.794l0.03,0.173c0.554,3.054 3.267,4.875 7.265,4.875c2.028,0 3.77,-0.504 5.164,-1.502c1.394,-0.981 2.097,-2.25 2.097,-3.77c0.011,-3.964 -3.513,-4.632 -6.355,-5.163c-2.067,-0.385 -3.852,-0.727 -3.852,-2.164c0,-1.14 1.216,-1.936 2.951,-1.936c1.92,0 2.966,0.824 3.215,2.516l0.028,0.19l3.79,-0.792l-0.025,-0.173c-0.51,-3.01 -3.196,-4.881 -7.004,-4.881l0,-0.001zm16.424,0c-1.915,0 -3.53,0.493 -4.81,1.47c-1.307,0.97 -1.97,2.234 -1.97,3.769c0,2.218 1.405,3.884 3.765,4.453a42.8,42.8 0 0 0 1.882,0.375c2.349,0.429 4.567,0.836 4.567,2.414c0,1.22 -1.415,2.067 -3.444,2.067c-2.06,0 -3.2,-0.826 -3.476,-2.524l-0.033,-0.19l-3.785,0.794l0.03,0.173c0.554,3.054 3.267,4.875 7.264,4.875c2.029,0 3.769,-0.504 5.168,-1.502c1.394,-0.981 2.1,-2.25 2.1,-3.77c0.005,-3.964 -3.527,-4.632 -6.363,-5.163c-2.067,-0.385 -3.85,-0.727 -3.85,-2.164c0,-1.14 1.216,-1.936 2.951,-1.936c1.92,0 2.966,0.824 3.215,2.516l0.028,0.19l3.79,-0.792l-0.027,-0.173c-0.51,-3.01 -3.194,-4.881 -7.002,-4.881l0,-0.001zm-34.42,0.005c-2.5,0 -4.616,0.851 -6.303,2.533c-1.703,1.703 -2.564,3.83 -2.564,6.33c0,2.484 0.873,4.606 2.604,6.293c1.735,1.703 3.838,2.531 6.425,2.531c3.504,0 6.521,-1.778 8.067,-4.762l0.086,-0.174l-3.205,-1.42l-0.077,0.151c-0.927,1.795 -2.712,2.871 -4.767,2.871c-2.669,0 -4.709,-1.628 -5.262,-4.172l13.75,0l0.018,-0.162c0.298,-2.75 -0.413,-5.131 -2.1,-7.084c-1.687,-1.947 -3.933,-2.936 -6.672,-2.936l0,0.001zm-68.168,0.005c-2.587,0 -4.692,0.83 -6.427,2.534c-1.725,1.692 -2.604,3.818 -2.604,6.33c0,2.484 0.873,4.604 2.604,6.29c1.735,1.704 3.84,2.534 6.427,2.534c3.678,0 6.807,-2.055 8.168,-5.363l0.076,-0.18l-3.515,-1.193l-0.065,0.158c-0.78,1.909 -2.527,3.052 -4.664,3.052c-1.453,0 -2.685,-0.51 -3.656,-1.507c-0.987,-1.015 -1.48,-2.289 -1.48,-3.786c0,-1.507 0.487,-2.76 1.48,-3.818c0.971,-1.02 2.203,-1.525 3.656,-1.525c2.088,0 3.791,1.113 4.664,3.06l0.07,0.15l3.51,-1.193l-0.076,-0.177c-1.356,-3.309 -4.485,-5.366 -8.168,-5.366zm37.225,0c-2.354,0 -4.29,0.836 -5.76,2.49l0,-2.17l-3.793,0l0,23.557l3.793,0l0,-8.683c1.47,1.649 3.406,2.488 5.76,2.488c2.37,0 4.393,-0.85 6.01,-2.537c1.594,-1.692 2.396,-3.808 2.396,-6.287c0,-2.511 -0.802,-4.638 -2.396,-6.324c-1.617,-1.682 -3.64,-2.534 -6.01,-2.534zm19.625,0.024c-1.926,-0.05 -3.754,0.784 -5.045,2.326l0,-2.03l-3.793,0l0,17.032l3.793,0l0,-9.605c0,-1.54 0.618,-2.718 1.844,-3.499c1.215,-0.775 2.674,-0.923 4.459,-0.435l0.226,0.066l0,-3.644l-0.14,-0.033a6.48,6.48 0 0 0 -1.344,-0.178zm-49.024,0.297l7.057,17.27l-5.021,12.177l3.601,0.715l12.404,-30.163l-3.894,0l-5.002,12.654l-5.027,-12.654l-4.118,0l0,0.001zm60.342,3.006c2.381,0 4.28,1.485 4.893,3.812l-9.78,0c0.673,-2.327 2.571,-3.812 4.887,-3.812zm-31.562,0.199c1.453,0 2.685,0.51 3.656,1.508c0.976,1.008 1.447,2.256 1.447,3.818c0,1.54 -0.476,2.784 -1.447,3.787c-0.97,1.004 -2.203,1.508 -3.656,1.508c-1.476,0 -2.667,-0.494 -3.655,-1.508c-0.987,-1.014 -1.482,-2.29 -1.482,-3.787c0,-1.54 0.484,-2.793 1.482,-3.818c0.988,-1.02 2.18,-1.508 3.655,-1.508z" fill="#e5e5e5"/>
  <path id="svg_4" d="m28.66,83.35l-0.879,2.12a1.179,1.179 0 0 1 -1.02,0.727a24.19,24.19 0 0 1 -0.894,0.022c-10.322,-0.005 -19.456,-7.284 -21.723,-17.313l-3.515,0.792c1.27,5.625 4.459,10.729 8.977,14.379a25.984,25.984 0 0 0 16.218,5.738l0.054,0c0.347,0 0.689,-0.01 1.03,-0.021a4.775,4.775 0 0 0 4.204,-2.951l1.144,-2.777l-3.596,-0.716z" fill="url(#b)"/>
 </g>
</svg>